<svg xmlns="http://www.w3.org/2000/svg" viewBox="0 0 160 160"><path fill="#82DEF4" d="M10 111c8.7-22.3 29-24.6 48.4-21.6 13.3 2 27 5.2 43.9 1.1 25.1-6.1 43-45.6 9.2-84.1 60.9 4.3 43 115.4-7.7 128.1-48 11.8-58.4-36.7-93.8-23.5z"/><path fill="#ADCCEA" d="M62.9 66l-37.8 89.9 9.5 4.1 34.7-92.6-6.4-1.4z"/><path fill="#6EA3D3" d="M65.9 57.5l-8.1 8.6 16.9 3.4L76 56.8c-2.1-3.4-5.7-2.9-10.1.7z"/><path fill="#B7E0FA" d="M46 65.8l14.5-24.3-11.9-13.9 20 2.1L87.4 0 89 31l26.3.8L90.6 46l1.1 34.1-18.9-24.8L46 65.8z"/><path fill="#71A2CD" d="M74.5 41.1l-9.8 9.6 11.5-7.6 5.2 11.3-3-13 10-5.3-10.1 2.8L79.8 28l-3.5 10.8-7.4-4.8 5.6 7.1z"/><path fill="#FFF" d="M73.2 114.9l2.5-4.3-2.6-2.6 3.8 1.1 3.8-3.2-2 4.3 2.6 3.6-4.1-2-4 3.1zM31.9 103l3.2-2.2 2.8 1.7-1.1-2.9 2.8-3.9-3.8 2.7-2.4-1.2.7 2.6-2.2 3.2zm68.1 24.7l1.8-7.3-3.2-1.8h4.2l2-4.8-.8 5.9 2.5 1.5-3.4.1-3.1 6.4zm16.6-25.8l3.5-1.4 2.4 2.2-.6-3.2 3.4-3.2-4.2 1.7-2.1-1.8.2 2.7-2.6 3zM144 50.4l-4.2 1.9L138 49l.2 4.3-3.5 3.5 4.2-1.3 2.7 3.5-1-4.8 3.4-3.8z"/><path fill="#618FC3" d="M152 160h-49.2c-4.4 0-8-3.6-8-8v-44c0-4.4 3.6-8 8-8H152c4.4 0 8 3.6 8 8v44c0 4.4-3.6 8-8 8z"/><g><g fill="#FFF"><path d="M116.7 147.7h-4.4v-28c-1.1 1-2.4 2-4.2 3-1.7 1-3.3 1.8-4.6 2.3v-4.2c2.5-1.2 4.6-2.6 6.4-4.2s3.1-3.2 3.9-4.8h2.8v35.9zM127.9 130c0-4.2.4-7.6 1.3-10.2.9-2.6 2.2-4.6 3.9-6 1.7-1.4 3.9-2.1 6.5-2.1 1.9 0 3.6.4 5.1 1.2 1.5.8 2.6 1.9 3.6 3.3.9 1.5 1.7 3.2 2.2 5.3.5 2.1.8 4.9.8 8.5 0 4.2-.4 7.6-1.3 10.2-.9 2.6-2.2 4.6-3.9 6-1.7 1.4-3.9 2.1-6.5 2.1-3.5 0-6.2-1.2-8.1-3.7-2.4-3-3.6-7.9-3.6-14.6zm4.6 0c0 5.9.7 9.8 2.1 11.7 1.4 1.9 3.1 2.9 5.1 2.9s3.7-1 5.1-2.9c1.4-2 2.1-5.9 2.1-11.7 0-5.9-.7-9.8-2.1-11.7-1.4-1.9-3.1-2.9-5.1-2.9-2 0-3.6.9-4.8 2.6-1.7 2.1-2.4 6.1-2.4 12z"/></g></g></svg>