<?xml version="1.0" encoding="UTF-8" standalone="no"?>
<svg
   xmlns:dc="http://purl.org/dc/elements/1.1/"
   xmlns:cc="http://creativecommons.org/ns#"
   xmlns:rdf="http://www.w3.org/1999/02/22-rdf-syntax-ns#"
   xmlns:svg="http://www.w3.org/2000/svg"
   xmlns="http://www.w3.org/2000/svg"
   viewBox="0 0 160 160"
   height="160"
   width="160"
   xml:space="preserve"
   version="1.1"
   id="svg2"><metadata
     id="metadata8"><rdf:RDF><cc:Work
         rdf:about=""><dc:format>image/svg+xml</dc:format><dc:type
           rdf:resource="http://purl.org/dc/dcmitype/StillImage" /><dc:title></dc:title></cc:Work></rdf:RDF></metadata><defs
     id="defs6"><linearGradient
       id="linearGradient24"
       spreadMethod="pad"
       gradientTransform="matrix(0,-93,-93,0,64,110.5)"
       gradientUnits="userSpaceOnUse"
       y2="0"
       x2="1"
       y1="0"
       x1="0"><stop
         id="stop26"
         offset="0"
         style="stop-opacity:1;stop-color:#ffffff" /><stop
         id="stop28"
         offset="1"
         style="stop-opacity:1;stop-color:#e6e7e8" /></linearGradient></defs><g
     transform="matrix(1.25,0,0,-1.25,0,160)"
     id="g10"><path
       id="path30"
       style="fill:url(#linearGradient24);stroke:none"
       d="m 19,110.5 c -4.125,0 -2.75,-13 -6.375,-13 l 0,0 -3.693,0 C 6.208,97.5 4,95.317 4,92.624 l 0,0 0,-70.248 C 4,19.683 6.208,17.5 8.932,17.5 l 0,0 110.135,0 c 2.725,0 4.933,2.183 4.933,4.876 l 0,0 0,70.248 c 0,2.693 -2.208,4.876 -4.933,4.876 l 0,0 -46.067,0 c -3.5,0 -1.875,13 -6.875,13 l 0,0 -47.125,0 z" /><path
       d="M 66.125,110.5 19,110.5 c -4.125,0 -2.75,-13 -6.375,-13 l -3.693,0 C 6.208,97.5 4,95.317 4,92.624 L 4,22.376 C 4,19.683 6.208,17.5 8.932,17.5 l 110.136,0 c 2.724,0 4.932,2.183 4.932,4.876 l 0,70.248 c 0,2.693 -2.208,4.876 -4.932,4.876 L 73,97.5 c -3.5,0 -1.875,13 -6.875,13 z"
       style="fill:none;stroke:#a7a9ac;stroke-width:3;stroke-linecap:butt;stroke-linejoin:miter;stroke-miterlimit:10;stroke-dasharray:none;stroke-opacity:1"
       id="path42" /><path
       d="m 21.9712,103.1098 30.82,0"
       style="fill:none;stroke:#000000;stroke-width:3;stroke-linecap:butt;stroke-linejoin:miter;stroke-miterlimit:10;stroke-dasharray:none;stroke-opacity:1"
       id="path46" /><path
       d="m 60.6642,104.5812 2.943,-2.943"
       style="fill:none;stroke:#939598;stroke-width:1;stroke-linecap:butt;stroke-linejoin:miter;stroke-miterlimit:10;stroke-dasharray:none;stroke-opacity:1"
       id="path50" /><path
       d="m 63.6071,104.5812 -2.943,-2.943"
       style="fill:none;stroke:#939598;stroke-width:1;stroke-linecap:butt;stroke-linejoin:miter;stroke-miterlimit:10;stroke-dasharray:none;stroke-opacity:1"
       id="path54" /><path
       d="m 31.9025,41.9789 c 27.011,-0.553 27.718,-11.743 36.59,-14.596 6.674,-2.147 14.782,9.293 16.081,13.634 4.969,16.61 5.543,30.934 -3.946,46.866 1.058,-26.566 -1.232,-31.414 -12.728,-38.558 -4.969,-3.088 -11.615,3.45 -17.379,2.448 -6.908,-1.202 -15.742,-6.016 -18.618,-9.794"
       style="fill:#73d6ed;fill-opacity:1;fill-rule:nonzero;stroke:none"
       id="path58" /><path
       d="m 83.8724,75.2601 c -0.624,-2.392 -1.376,-2.05 -2.124,-2.006 0.903,-0.846 1.123,-1.369 0.741,-3.377 0.726,1.273 0.648,2.116 2.228,1.594 -1.089,0.97 -1.343,1.297 -0.845,3.789 z"
       style="fill:#fffffe;fill-opacity:1;fill-rule:nonzero;stroke:none"
       id="path62" /><path
       d="m 82.2733,60.3125 c -0.624,-2.392 -1.376,-2.05 -2.124,-2.006 0.903,-0.846 1.123,-1.369 0.741,-3.377 0.726,1.273 0.648,2.116 2.228,1.594 -1.089,0.97 -1.343,1.297 -0.845,3.789 z"
       style="fill:#fffffe;fill-opacity:1;fill-rule:nonzero;stroke:none"
       id="path66" /><path
       d="m 80.3046,47.6385 c -0.537,-2.057 -1.183,-1.763 -1.826,-1.725 0.776,-0.727 0.965,-1.177 0.637,-2.904 0.624,1.095 0.557,1.82 1.916,1.371 -0.937,0.834 -1.155,1.115 -0.727,3.258 z"
       style="fill:#fffffe;fill-opacity:1;fill-rule:nonzero;stroke:none"
       id="path70" /><path
       d="m 72.2768,36.6676 c -0.624,-2.392 -1.376,-2.05 -2.124,-2.006 0.903,-0.846 1.123,-1.369 0.741,-3.377 0.726,1.273 0.648,2.116 2.228,1.594 -1.089,0.97 -1.343,1.297 -0.845,3.789 z"
       style="fill:#fffffe;fill-opacity:1;fill-rule:nonzero;stroke:none"
       id="path74" /><path
       d="m 61.7879,44.1316 c -0.497,-1.905 -1.095,-1.632 -1.691,-1.597 0.719,-0.674 0.894,-1.09 0.59,-2.689 0.578,1.013 0.516,1.685 1.774,1.269 -0.867,0.772 -1.069,1.033 -0.673,3.017 z"
       style="fill:#fffffe;fill-opacity:1;fill-rule:nonzero;stroke:none"
       id="path78" /><path
       d="m 46.7923,48.2169 c -0.561,-2.148 -1.235,-1.841 -1.907,-1.802 0.811,-0.759 1.008,-1.229 0.665,-3.033 0.652,1.144 0.582,1.901 2.001,1.432 -0.978,0.871 -1.206,1.165 -0.759,3.403 z"
       style="fill:#fffffe;fill-opacity:1;fill-rule:nonzero;stroke:none"
       id="path82" /><path
       d="m 45.4538,34.6182 18.845,35.092"
       style="fill:#c3e2f4;fill-opacity:1;fill-rule:nonzero;stroke:#94c1dd;stroke-width:1.07299995;stroke-linecap:butt;stroke-linejoin:miter;stroke-miterlimit:4;stroke-dasharray:none;stroke-opacity:1"
       id="path86" /><path
       d="m 62.1356,65.6741 3.413,6.559"
       style="fill:#2385be;fill-opacity:1;fill-rule:nonzero;stroke:#2385be;stroke-width:1.61000001;stroke-linecap:butt;stroke-linejoin:miter;stroke-miterlimit:4;stroke-dasharray:none;stroke-opacity:1"
       id="path90" /><path
       d="m 73.9906,87.0475 -18.752,-16.792 24.796,3.685 -20.663,11.373 10.154,-22.89 4.465,24.624 z"
       style="fill:#c3e2f4;fill-opacity:1;fill-rule:nonzero;stroke:none"
       id="path94" /><path
       d="m 71.1724,82.0172 -10.164,-9.102 13.44,1.998 -11.2,6.164 5.504,-12.407 2.42,13.347 z"
       style="fill:#94c1dd;fill-opacity:1;fill-rule:nonzero;stroke:none"
       id="path98" /></g></svg>