<svg xmlns="http://www.w3.org/2000/svg" viewBox="0 0 512 512"><path fill="#6CB2EA" d="M36 475.06L474.612 36.446l24.749 24.748L60.748 499.81z"/><path fill="#6CB2EA" d="M409.7 321.9c-7.7 18.7-24 35.3-40.5 46.7-35 24.2-82.3 29.3-123.4 22.9 7.6 26.8 13.6 54.3 15 82.2.6 12.5.3 25.1-1.3 37.5 0 .3-.1.6-.1.8H256c-70.7 0-134.7-28.7-181-75l323.2-323.2c11.4 18.8 18.8 39.8 27.8 59.8 10.5 23.4 23.8 45.1 43.5 61.9 2.6 2.2 5.3 4.5 7.9 6.7-29.8-.4-57.4-6.8-85.3-17.2 2.1 21.7 1.6 42.8-1.3 64.4 5.2-.1 10.3-.1 14.8 3 9.8 6.6 8 20 4.1 29.5zM425.3 127c10.3 7.9 19.2 17.1 28.2 26.3-8.1-22.6-16.4-44.2-31.9-63l-20.5 20.5c8.3 5.1 16.5 10.3 24.2 16.2zm-91.5-94c37.2-.7 72.2 9.4 107.6 19.5-30.9-17.9-61.3-35.9-96.7-43.4C290.8-2.2 236.8 11 190.2 39.2c-25.8 15.6-49 35.1-70.6 56.1-8.1-8.7-16.7-18-26.5-24.8-5-3.5-11.3-6.7-17.4-4.5-7.3 2.5-11.1 11-14.3 17.5-4.3 8.6-8 17.1-10.3 26.4-6.3 25.6-4.3 53.2 2.3 78.5 1.5 5.7 3.2 11.4 5.3 16.9 1.1 2.9 2.2 5.8 3.4 8.6 1.3 3.1 4.5 7.5 5.1 10.8 4.4 76.6 1.6 128.3-2.8 180.5l336-336c-19.6-16.1-42.7-27.9-66.6-36.2z"/></svg>
